<mxfile host="app.diagrams.net" agent="Mozilla/5.0 (Windows NT 10.0; Win64; x64) AppleWebKit/537.36 (KHTML, like Gecko) Chrome/132.0.0.0 Safari/537.36" version="26.0.11">
  <diagram name="Pagina-1" id="JJ8wtZw6I8zX9myihea7">
    <mxGraphModel dx="3871" dy="1575" grid="1" gridSize="10" guides="1" tooltips="1" connect="1" arrows="1" fold="1" page="1" pageScale="1" pageWidth="827" pageHeight="1169" math="0" shadow="0">
      <root>
        <mxCell id="0" />
        <mxCell id="1" parent="0" />
        <mxCell id="4An5wV_hj2EwBzefKLwf-1" value="" style="rounded=0;html=1;jettySize=auto;orthogonalLoop=1;fontSize=11;endArrow=block;endFill=0;endSize=8;strokeWidth=1;shadow=0;labelBackgroundColor=none;edgeStyle=orthogonalEdgeStyle;exitX=0.5;exitY=1;exitDx=0;exitDy=0;entryX=0.5;entryY=0;entryDx=0;entryDy=0;" edge="1" parent="1" source="4An5wV_hj2EwBzefKLwf-2" target="4An5wV_hj2EwBzefKLwf-5">
          <mxGeometry relative="1" as="geometry">
            <mxPoint x="-400" y="100" as="targetPoint" />
            <mxPoint x="-404" y="120" as="sourcePoint" />
          </mxGeometry>
        </mxCell>
        <mxCell id="4An5wV_hj2EwBzefKLwf-2" value="" style="ellipse;shape=doubleEllipse;html=1;dashed=0;whiteSpace=wrap;aspect=fixed;" vertex="1" parent="1">
          <mxGeometry x="-420" width="40" height="40" as="geometry" />
        </mxCell>
        <mxCell id="4An5wV_hj2EwBzefKLwf-3" value="Yes" style="edgeStyle=orthogonalEdgeStyle;rounded=0;html=1;jettySize=auto;orthogonalLoop=1;fontSize=11;endArrow=block;endFill=0;endSize=8;strokeWidth=1;shadow=0;labelBackgroundColor=none;exitX=0.5;exitY=1;exitDx=0;exitDy=0;entryX=0.5;entryY=0;entryDx=0;entryDy=0;" edge="1" parent="1" source="4An5wV_hj2EwBzefKLwf-4" target="4An5wV_hj2EwBzefKLwf-19">
          <mxGeometry x="0.206" y="10" relative="1" as="geometry">
            <mxPoint as="offset" />
            <mxPoint x="-400" y="470" as="targetPoint" />
            <mxPoint x="-300" y="369.97" as="sourcePoint" />
            <Array as="points" />
          </mxGeometry>
        </mxCell>
        <mxCell id="4An5wV_hj2EwBzefKLwf-4" value="Supera gli enigmi?" style="rhombus;whiteSpace=wrap;html=1;shadow=0;fontFamily=Helvetica;fontSize=12;align=center;strokeWidth=1;spacing=6;spacingTop=-4;" vertex="1" parent="1">
          <mxGeometry x="-450" y="320" width="100" height="80" as="geometry" />
        </mxCell>
        <mxCell id="4An5wV_hj2EwBzefKLwf-5" value="Genera casualmente le 5 stanze" style="rounded=1;whiteSpace=wrap;html=1;fontSize=12;glass=0;strokeWidth=1;shadow=0;" vertex="1" parent="1">
          <mxGeometry x="-460" y="81" width="120" height="40" as="geometry" />
        </mxCell>
        <mxCell id="4An5wV_hj2EwBzefKLwf-6" value="No" style="edgeStyle=orthogonalEdgeStyle;rounded=0;html=1;jettySize=auto;orthogonalLoop=1;fontSize=11;endArrow=block;endFill=0;endSize=8;strokeWidth=1;shadow=0;labelBackgroundColor=none;exitX=0;exitY=0.5;exitDx=0;exitDy=0;entryX=0.5;entryY=0;entryDx=0;entryDy=0;" edge="1" parent="1" source="4An5wV_hj2EwBzefKLwf-4" target="4An5wV_hj2EwBzefKLwf-13">
          <mxGeometry x="-0.6667" y="10" relative="1" as="geometry">
            <mxPoint as="offset" />
            <mxPoint x="-540" y="370" as="targetPoint" />
            <mxPoint x="-560" y="240" as="sourcePoint" />
            <Array as="points">
              <mxPoint x="-560" y="360" />
            </Array>
          </mxGeometry>
        </mxCell>
        <mxCell id="4An5wV_hj2EwBzefKLwf-7" value="Genera al loro interno casualmente 2 enigmi" style="rounded=1;whiteSpace=wrap;html=1;fontSize=12;glass=0;strokeWidth=1;shadow=0;" vertex="1" parent="1">
          <mxGeometry x="-460" y="160" width="120" height="40" as="geometry" />
        </mxCell>
        <mxCell id="4An5wV_hj2EwBzefKLwf-9" value="" style="ellipse;shape=doubleEllipse;html=1;dashed=0;whiteSpace=wrap;aspect=fixed;fillColor=#000000;fontColor=#333333;strokeColor=#000000;" vertex="1" parent="1">
          <mxGeometry x="-500" y="1240" width="40" height="40" as="geometry" />
        </mxCell>
        <mxCell id="4An5wV_hj2EwBzefKLwf-10" value="" style="rounded=0;html=1;jettySize=auto;orthogonalLoop=1;fontSize=11;endArrow=block;endFill=0;endSize=8;strokeWidth=1;shadow=0;labelBackgroundColor=none;edgeStyle=orthogonalEdgeStyle;exitX=0.5;exitY=1;exitDx=0;exitDy=0;entryX=0.5;entryY=0;entryDx=0;entryDy=0;" edge="1" parent="1" source="4An5wV_hj2EwBzefKLwf-5" target="4An5wV_hj2EwBzefKLwf-7">
          <mxGeometry relative="1" as="geometry">
            <mxPoint x="-390" y="110" as="targetPoint" />
            <mxPoint x="-390" y="50" as="sourcePoint" />
          </mxGeometry>
        </mxCell>
        <mxCell id="4An5wV_hj2EwBzefKLwf-11" value="Spawn giocatore all&#39;inizio della stanza&lt;div&gt;senza oggetti&lt;/div&gt;" style="rounded=1;whiteSpace=wrap;html=1;fontSize=12;glass=0;strokeWidth=1;shadow=0;" vertex="1" parent="1">
          <mxGeometry x="-460" y="240" width="120" height="50" as="geometry" />
        </mxCell>
        <mxCell id="4An5wV_hj2EwBzefKLwf-12" value="" style="rounded=0;html=1;jettySize=auto;orthogonalLoop=1;fontSize=11;endArrow=block;endFill=0;endSize=8;strokeWidth=1;shadow=0;labelBackgroundColor=none;edgeStyle=orthogonalEdgeStyle;exitX=0.5;exitY=1;exitDx=0;exitDy=0;entryX=0.5;entryY=0;entryDx=0;entryDy=0;" edge="1" parent="1" target="4An5wV_hj2EwBzefKLwf-11" source="4An5wV_hj2EwBzefKLwf-7">
          <mxGeometry relative="1" as="geometry">
            <mxPoint x="-390" y="199" as="targetPoint" />
            <mxPoint x="-400" y="210" as="sourcePoint" />
          </mxGeometry>
        </mxCell>
        <mxCell id="4An5wV_hj2EwBzefKLwf-13" value="Era un &lt;br&gt;enigma &lt;br&gt;fatale?" style="rhombus;whiteSpace=wrap;html=1;shadow=0;fontFamily=Helvetica;fontSize=12;align=center;strokeWidth=1;spacing=6;spacingTop=-4;" vertex="1" parent="1">
          <mxGeometry x="-610" y="380" width="100" height="80" as="geometry" />
        </mxCell>
        <mxCell id="4An5wV_hj2EwBzefKLwf-14" value="Yes" style="edgeStyle=orthogonalEdgeStyle;rounded=0;html=1;jettySize=auto;orthogonalLoop=1;fontSize=11;endArrow=block;endFill=0;endSize=8;strokeWidth=1;shadow=0;labelBackgroundColor=none;exitX=0.5;exitY=1;exitDx=0;exitDy=0;entryX=0.5;entryY=0;entryDx=0;entryDy=0;" edge="1" parent="1" source="4An5wV_hj2EwBzefKLwf-13" target="4An5wV_hj2EwBzefKLwf-30">
          <mxGeometry x="0.206" y="10" relative="1" as="geometry">
            <mxPoint as="offset" />
            <mxPoint x="-560" y="560" as="targetPoint" />
            <mxPoint x="-390" y="410" as="sourcePoint" />
            <Array as="points" />
          </mxGeometry>
        </mxCell>
        <mxCell id="4An5wV_hj2EwBzefKLwf-15" value="No" style="edgeStyle=orthogonalEdgeStyle;rounded=0;html=1;jettySize=auto;orthogonalLoop=1;fontSize=11;endArrow=block;endFill=0;endSize=8;strokeWidth=1;shadow=0;labelBackgroundColor=none;exitX=0;exitY=0.5;exitDx=0;exitDy=0;entryX=0.5;entryY=0;entryDx=0;entryDy=0;" edge="1" parent="1" source="4An5wV_hj2EwBzefKLwf-13" target="4An5wV_hj2EwBzefKLwf-11">
          <mxGeometry x="-0.6667" y="10" relative="1" as="geometry">
            <mxPoint as="offset" />
            <mxPoint x="-550" y="390" as="targetPoint" />
            <mxPoint x="-440" y="370" as="sourcePoint" />
            <Array as="points">
              <mxPoint x="-620" y="420" />
              <mxPoint x="-620" y="220" />
              <mxPoint x="-400" y="220" />
            </Array>
          </mxGeometry>
        </mxCell>
        <mxCell id="4An5wV_hj2EwBzefKLwf-16" value="" style="rounded=0;html=1;jettySize=auto;orthogonalLoop=1;fontSize=11;endArrow=block;endFill=0;endSize=8;strokeWidth=1;shadow=0;labelBackgroundColor=none;edgeStyle=orthogonalEdgeStyle;exitX=0.5;exitY=1;exitDx=0;exitDy=0;" edge="1" parent="1">
          <mxGeometry relative="1" as="geometry">
            <mxPoint x="-400" y="320" as="targetPoint" />
            <mxPoint x="-400.26" y="290" as="sourcePoint" />
          </mxGeometry>
        </mxCell>
        <mxCell id="4An5wV_hj2EwBzefKLwf-19" value="Batte gli &lt;br&gt;NPC e raccoglie l&#39;oggetto?" style="rhombus;whiteSpace=wrap;html=1;shadow=0;fontFamily=Helvetica;fontSize=12;align=center;strokeWidth=1;spacing=6;spacingTop=-4;" vertex="1" parent="1">
          <mxGeometry x="-450" y="440" width="100" height="80" as="geometry" />
        </mxCell>
        <mxCell id="4An5wV_hj2EwBzefKLwf-21" value="Yes" style="edgeStyle=orthogonalEdgeStyle;rounded=0;html=1;jettySize=auto;orthogonalLoop=1;fontSize=11;endArrow=block;endFill=0;endSize=8;strokeWidth=1;shadow=0;labelBackgroundColor=none;exitX=0.5;exitY=1;exitDx=0;exitDy=0;entryX=0.5;entryY=0;entryDx=0;entryDy=0;" edge="1" parent="1" source="4An5wV_hj2EwBzefKLwf-19" target="4An5wV_hj2EwBzefKLwf-23">
          <mxGeometry x="0.206" y="10" relative="1" as="geometry">
            <mxPoint as="offset" />
            <mxPoint x="-400" y="560" as="targetPoint" />
            <mxPoint x="-400.2" y="570" as="sourcePoint" />
            <Array as="points" />
          </mxGeometry>
        </mxCell>
        <mxCell id="4An5wV_hj2EwBzefKLwf-23" value="Giocatore raggiunge la porta ed esce" style="rounded=1;whiteSpace=wrap;html=1;fontSize=12;glass=0;strokeWidth=1;shadow=0;" vertex="1" parent="1">
          <mxGeometry x="-460" y="560" width="120" height="50" as="geometry" />
        </mxCell>
        <mxCell id="4An5wV_hj2EwBzefKLwf-24" value="No" style="edgeStyle=orthogonalEdgeStyle;rounded=0;html=1;jettySize=auto;orthogonalLoop=1;fontSize=11;endArrow=block;endFill=0;endSize=8;strokeWidth=1;shadow=0;labelBackgroundColor=none;exitX=1;exitY=0.5;exitDx=0;exitDy=0;entryX=0.5;entryY=0;entryDx=0;entryDy=0;" edge="1" parent="1" source="4An5wV_hj2EwBzefKLwf-19" target="4An5wV_hj2EwBzefKLwf-11">
          <mxGeometry x="-0.9024" y="10" relative="1" as="geometry">
            <mxPoint as="offset" />
            <mxPoint x="-310" y="470" as="targetPoint" />
            <mxPoint x="-200" y="450" as="sourcePoint" />
            <Array as="points">
              <mxPoint x="-310" y="480" />
              <mxPoint x="-310" y="220" />
              <mxPoint x="-400" y="220" />
            </Array>
          </mxGeometry>
        </mxCell>
        <mxCell id="4An5wV_hj2EwBzefKLwf-25" value="Era la 5° stanza?" style="rhombus;whiteSpace=wrap;html=1;shadow=0;fontFamily=Helvetica;fontSize=12;align=center;strokeWidth=1;spacing=6;spacingTop=-4;" vertex="1" parent="1">
          <mxGeometry x="-450" y="640" width="100" height="80" as="geometry" />
        </mxCell>
        <mxCell id="4An5wV_hj2EwBzefKLwf-26" value="Yes" style="edgeStyle=orthogonalEdgeStyle;rounded=0;html=1;jettySize=auto;orthogonalLoop=1;fontSize=11;endArrow=block;endFill=0;endSize=8;strokeWidth=1;shadow=0;labelBackgroundColor=none;exitX=0.5;exitY=1;exitDx=0;exitDy=0;entryX=0.5;entryY=0;entryDx=0;entryDy=0;" edge="1" parent="1" source="4An5wV_hj2EwBzefKLwf-25" target="4An5wV_hj2EwBzefKLwf-29">
          <mxGeometry x="0.206" y="10" relative="1" as="geometry">
            <mxPoint as="offset" />
            <mxPoint x="-400" y="770" as="targetPoint" />
            <mxPoint x="-400.2" y="780" as="sourcePoint" />
            <Array as="points" />
          </mxGeometry>
        </mxCell>
        <mxCell id="4An5wV_hj2EwBzefKLwf-27" value="No" style="edgeStyle=orthogonalEdgeStyle;rounded=0;html=1;jettySize=auto;orthogonalLoop=1;fontSize=11;endArrow=block;endFill=0;endSize=8;strokeWidth=1;shadow=0;labelBackgroundColor=none;entryX=0.5;entryY=0;entryDx=0;entryDy=0;exitX=1;exitY=0.5;exitDx=0;exitDy=0;" edge="1" parent="1" source="4An5wV_hj2EwBzefKLwf-25" target="4An5wV_hj2EwBzefKLwf-11">
          <mxGeometry x="-0.6667" y="10" relative="1" as="geometry">
            <mxPoint as="offset" />
            <mxPoint x="-400" y="440" as="targetPoint" />
            <mxPoint x="-350" y="680" as="sourcePoint" />
            <Array as="points">
              <mxPoint x="-250" y="680" />
              <mxPoint x="-250" y="220" />
              <mxPoint x="-400" y="220" />
            </Array>
          </mxGeometry>
        </mxCell>
        <mxCell id="4An5wV_hj2EwBzefKLwf-28" value="" style="rounded=0;html=1;jettySize=auto;orthogonalLoop=1;fontSize=11;endArrow=block;endFill=0;endSize=8;strokeWidth=1;shadow=0;labelBackgroundColor=none;edgeStyle=orthogonalEdgeStyle;exitX=0.5;exitY=1;exitDx=0;exitDy=0;entryX=0.5;entryY=0;entryDx=0;entryDy=0;" edge="1" parent="1" source="4An5wV_hj2EwBzefKLwf-23" target="4An5wV_hj2EwBzefKLwf-25">
          <mxGeometry relative="1" as="geometry">
            <mxPoint x="-369.74" y="650" as="targetPoint" />
            <mxPoint x="-370" y="620" as="sourcePoint" />
          </mxGeometry>
        </mxCell>
        <mxCell id="4An5wV_hj2EwBzefKLwf-29" value="Schermata di vittoria&lt;div&gt;e&lt;/div&gt;&lt;div&gt;Visualizzazione punteggio&lt;/div&gt;" style="rounded=1;whiteSpace=wrap;html=1;fontSize=12;glass=0;strokeWidth=1;shadow=0;" vertex="1" parent="1">
          <mxGeometry x="-460" y="760" width="120" height="60" as="geometry" />
        </mxCell>
        <mxCell id="4An5wV_hj2EwBzefKLwf-30" value="Schermata di Sconfitta&lt;div&gt;e&lt;/div&gt;&lt;div&gt;Visualizzazione punteggio&lt;/div&gt;" style="rounded=1;whiteSpace=wrap;html=1;fontSize=12;glass=0;strokeWidth=1;shadow=0;" vertex="1" parent="1">
          <mxGeometry x="-620" y="560" width="120" height="70" as="geometry" />
        </mxCell>
        <mxCell id="4An5wV_hj2EwBzefKLwf-36" value="Yes" style="edgeStyle=orthogonalEdgeStyle;rounded=0;html=1;jettySize=auto;orthogonalLoop=1;fontSize=11;endArrow=block;endFill=0;endSize=8;strokeWidth=1;shadow=0;labelBackgroundColor=none;exitX=0.5;exitY=1;exitDx=0;exitDy=0;entryX=0.5;entryY=0;entryDx=0;entryDy=0;" edge="1" parent="1" source="4An5wV_hj2EwBzefKLwf-37" target="4An5wV_hj2EwBzefKLwf-41">
          <mxGeometry x="0.206" y="10" relative="1" as="geometry">
            <mxPoint as="offset" />
            <mxPoint x="-400" y="990" as="targetPoint" />
            <mxPoint x="-300" y="899.97" as="sourcePoint" />
            <Array as="points" />
          </mxGeometry>
        </mxCell>
        <mxCell id="4An5wV_hj2EwBzefKLwf-37" value="Punteggio &amp;gt;del highscore personale?" style="rhombus;whiteSpace=wrap;html=1;shadow=0;fontFamily=Helvetica;fontSize=12;align=center;strokeWidth=1;spacing=6;spacingTop=-4;" vertex="1" parent="1">
          <mxGeometry x="-460" y="880" width="120" height="110" as="geometry" />
        </mxCell>
        <mxCell id="4An5wV_hj2EwBzefKLwf-38" value="No" style="edgeStyle=orthogonalEdgeStyle;rounded=0;html=1;jettySize=auto;orthogonalLoop=1;fontSize=11;endArrow=block;endFill=0;endSize=8;strokeWidth=1;shadow=0;labelBackgroundColor=none;exitX=0;exitY=0.5;exitDx=0;exitDy=0;entryX=0.5;entryY=0;entryDx=0;entryDy=0;" edge="1" parent="1" source="4An5wV_hj2EwBzefKLwf-37" target="4An5wV_hj2EwBzefKLwf-9">
          <mxGeometry x="-0.6667" y="10" relative="1" as="geometry">
            <mxPoint as="offset" />
            <mxPoint x="-550" y="1110" as="targetPoint" />
            <mxPoint x="-560" y="770" as="sourcePoint" />
            <Array as="points">
              <mxPoint x="-560" y="935" />
              <mxPoint x="-560" y="1200" />
              <mxPoint x="-480" y="1200" />
            </Array>
          </mxGeometry>
        </mxCell>
        <mxCell id="4An5wV_hj2EwBzefKLwf-39" value="" style="rounded=0;html=1;jettySize=auto;orthogonalLoop=1;fontSize=11;endArrow=block;endFill=0;endSize=8;strokeWidth=1;shadow=0;labelBackgroundColor=none;edgeStyle=orthogonalEdgeStyle;exitX=0.5;exitY=1;exitDx=0;exitDy=0;entryX=0.5;entryY=0;entryDx=0;entryDy=0;" edge="1" parent="1" source="4An5wV_hj2EwBzefKLwf-29" target="4An5wV_hj2EwBzefKLwf-37">
          <mxGeometry relative="1" as="geometry">
            <mxPoint x="-400" y="850" as="targetPoint" />
            <mxPoint x="-400.26" y="820" as="sourcePoint" />
          </mxGeometry>
        </mxCell>
        <mxCell id="4An5wV_hj2EwBzefKLwf-41" value="Messaggio&lt;div&gt;&quot;Nuovo HighScore&quot;&lt;/div&gt;" style="rounded=1;whiteSpace=wrap;html=1;fontSize=12;glass=0;strokeWidth=1;shadow=0;" vertex="1" parent="1">
          <mxGeometry x="-460" y="1041" width="120" height="50" as="geometry" />
        </mxCell>
        <mxCell id="4An5wV_hj2EwBzefKLwf-43" value="Sovrascrivere punteggio nel DB&amp;nbsp;" style="rounded=1;whiteSpace=wrap;html=1;fontSize=12;glass=0;strokeWidth=1;shadow=0;" vertex="1" parent="1">
          <mxGeometry x="-460" y="1120" width="120" height="50" as="geometry" />
        </mxCell>
        <mxCell id="4An5wV_hj2EwBzefKLwf-44" value="" style="rounded=0;html=1;jettySize=auto;orthogonalLoop=1;fontSize=11;endArrow=block;endFill=0;endSize=8;strokeWidth=1;shadow=0;labelBackgroundColor=none;edgeStyle=orthogonalEdgeStyle;exitX=0.5;exitY=1;exitDx=0;exitDy=0;entryX=0.5;entryY=0;entryDx=0;entryDy=0;" edge="1" parent="1" source="4An5wV_hj2EwBzefKLwf-41" target="4An5wV_hj2EwBzefKLwf-43">
          <mxGeometry relative="1" as="geometry">
            <mxPoint x="-400.15999999999997" y="1131" as="targetPoint" />
            <mxPoint x="-400.15999999999997" y="1101" as="sourcePoint" />
          </mxGeometry>
        </mxCell>
        <mxCell id="4An5wV_hj2EwBzefKLwf-45" value="" style="rounded=0;html=1;jettySize=auto;orthogonalLoop=1;fontSize=11;endArrow=block;endFill=0;endSize=8;strokeWidth=1;shadow=0;labelBackgroundColor=none;edgeStyle=orthogonalEdgeStyle;exitX=0.5;exitY=1;exitDx=0;exitDy=0;entryX=0.5;entryY=0;entryDx=0;entryDy=0;" edge="1" parent="1" source="4An5wV_hj2EwBzefKLwf-30" target="4An5wV_hj2EwBzefKLwf-37">
          <mxGeometry relative="1" as="geometry">
            <mxPoint x="-380" y="870" as="targetPoint" />
            <mxPoint x="-380" y="840" as="sourcePoint" />
            <Array as="points">
              <mxPoint x="-560" y="850" />
              <mxPoint x="-400" y="850" />
            </Array>
          </mxGeometry>
        </mxCell>
        <mxCell id="4An5wV_hj2EwBzefKLwf-46" value="" style="rounded=0;html=1;jettySize=auto;orthogonalLoop=1;fontSize=11;endArrow=block;endFill=0;endSize=8;strokeWidth=1;shadow=0;labelBackgroundColor=none;edgeStyle=orthogonalEdgeStyle;exitX=0.5;exitY=1;exitDx=0;exitDy=0;entryX=0.5;entryY=0;entryDx=0;entryDy=0;" edge="1" parent="1" source="4An5wV_hj2EwBzefKLwf-43" target="4An5wV_hj2EwBzefKLwf-9">
          <mxGeometry relative="1" as="geometry">
            <mxPoint x="-390" y="1130" as="targetPoint" />
            <mxPoint x="-390" y="1101" as="sourcePoint" />
            <Array as="points">
              <mxPoint x="-400" y="1200" />
              <mxPoint x="-480" y="1200" />
            </Array>
          </mxGeometry>
        </mxCell>
      </root>
    </mxGraphModel>
  </diagram>
</mxfile>
